<?xml version="1.0" standalone="no"?><!DOCTYPE svg PUBLIC "-//W3C//DTD SVG 1.1//EN" "http://www.w3.org/Graphics/SVG/1.1/DTD/svg11.dtd"><svg t="1679041896199" class="icon" viewBox="0 0 1024 1024" version="1.1" xmlns="http://www.w3.org/2000/svg" p-id="1648" xmlns:xlink="http://www.w3.org/1999/xlink" width="200" height="200"><path d="M843.896471 3.493647 828.717176 102.4 820.946824 6.927059 601.810824 39.152941 601.810824 327.499294C563.622503 312.427553 522.937255 304.682847 481.882353 304.670118 299.008 304.670118 150.588235 454.595765 150.588235 639.457882 150.588235 824.32 298.827294 974.245647 481.882353 974.245647 522.918547 974.33459 563.604197 966.691985 601.810824 951.717647L601.810824 979.064471 792.576 1020.205176 867.870118 0M331.294118 628.796235C332.222421 566.540915 383.284657 516.739073 445.543734 517.366698 507.802812 517.994324 557.850682 568.815443 557.523749 631.076828 557.196816 693.338208 506.618 743.630938 444.355765 743.604706 381.437404 743.107602 330.82657 691.714819 331.294118 628.796235M608.376471 691.561412C583.198118 796.370824 448.933647 783.058824 448.933647 783.058824 448.933647 783.058824 566.693647 774.445176 588.016941 678.430118 609.340235 582.415059 563.922824 546.816 563.922824 546.816 563.922824 546.816 631.567059 595.666824 608.376471 691.561412" fill="#231815" p-id="1649"></path></svg>